<!--?xml version="1.0" standalone="no"?-->
              <svg id="sw-js-blob-svg" viewBox="0 0 100 100" xmlns="http://www.w3.org/2000/svg" version="1.1">
                    <defs> 
                        <linearGradient id="sw-gradient" x1="0" x2="1" y1="1" y2="0">
                            <stop id="stop1" stop-color="rgba(248, 117, 55, 1)" offset="0%"></stop>
                            <stop id="stop2" stop-color="rgba(251, 168, 31, 1)" offset="100%"></stop>
                        </linearGradient>
                    </defs>
                <path fill="url(#sw-gradient)" d="M16.9,-25C21,-20.3,22.6,-14.1,21.8,-8.9C20.9,-3.7,17.5,0.4,17.2,6.9C16.9,13.4,19.7,22.1,17.3,25.2C15,28.2,7.5,25.4,2.3,22.2C-2.8,19,-5.7,15.4,-12.8,13.9C-19.9,12.4,-31.3,13.1,-36.5,9.1C-41.6,5,-40.6,-3.9,-35.8,-9.5C-31.1,-15.1,-22.6,-17.3,-16,-21.1C-9.5,-25,-4.7,-30.5,0.9,-31.7C6.4,-32.8,12.9,-29.7,16.9,-25Z" width="100%" height="100%" transform="translate(50 50)" stroke-width="0" style="transition: all 0.3s ease 0s;"></path>
              </svg>